<svg xmlns="http://www.w3.org/2000/svg" version="1.1" xmlns:xlink="http://www.w3.org/1999/xlink" xmlns:svgjs="http://svgjs.com/svgjs" width="512" height="512" x="0" y="0" viewBox="0 0 176 176" style="enable-background:new 0 0 512 512" xml:space="preserve" class=""><g><g xmlns="http://www.w3.org/2000/svg" id="Layer_2" data-name="Layer 2"><g id="_19.vk" data-name="19.vk"><path d="m173 31.47a32 32 0 0 0 -28.48-28.47 530 530 0 0 0 -113 0 32 32 0 0 0 -28.52 28.47 532.69 532.69 0 0 0 0 113.05 32.06 32.06 0 0 0 28.48 28.48 530 530 0 0 0 113 0 32.06 32.06 0 0 0 28.52-28.48 532.69 532.69 0 0 0 0-113.05zm-35.27 88c-2.56.36-15.08 0-15.73 0a12.29 12.29 0 0 1 -8.7-3.47c-2.64-2.55-5-5.35-7.58-8a20.22 20.22 0 0 0 -2.47-2.24c-2.06-1.58-4.1-1.22-5.07 1.21a47.26 47.26 0 0 0 -1.58 8.03c-.17 2.45-1.73 4-4.49 4.16-1.71.1-3.42.13-5.11.09a39 39 0 0 1 -17.69-4.38 48.15 48.15 0 0 1 -15.13-13.22c-6.67-8.52-12-17.88-16.76-27.53-.25-.49-5.13-10.86-5.25-11.36-.44-1.63 0-3.2 1.35-3.75.86-.33 16.94 0 17.21 0a5.65 5.65 0 0 1 5.4 3.89 83.8 83.8 0 0 0 12.08 21.18 11.56 11.56 0 0 0 2.45 2.23c1.31.9 2.55.59 3.09-.93a26.28 26.28 0 0 0 1.12-6.45c.09-4.34 0-7.19-.24-11.53-.16-2.78-1.14-5.21-5.24-6-1.26-.23-1.37-1.27-.56-2.31 1.69-2.15 4-2.5 6.59-2.62 3.86-.23 7.72-.08 11.58 0h.84a23.26 23.26 0 0 1 5 .5 4.63 4.63 0 0 1 3.67 4.11 16 16 0 0 1 .25 3.32c-.1 4.73-.33 9.47-.38 14.2a24.3 24.3 0 0 0 .51 5.59c.55 2.53 2.28 3.15 4 1.33a62.24 62.24 0 0 0 6.11-7.52 76.12 76.12 0 0 0 8-15.56c1.12-2.81 2-3.43 5-3.43h17.06a10.12 10.12 0 0 1 3 .4 2.59 2.59 0 0 1 1.79 3.35c-.84 3.75-2.86 6.93-5 10-3.47 4.91-7.13 9.7-10.68 14.55a18.8 18.8 0 0 0 -1.23 2c-1.34 2.41-1.24 3.76.7 5.76 3.1 3.19 6.41 6.17 9.4 9.45a55.77 55.77 0 0 1 5.92 7.69c2.19 3.4.84 6.64-3.24 7.22z" fill="#000000" data-original="#000000" class=""></path></g></g></g></svg>